<svg width="64" height="64" viewBox="0 0 64 64" fill="none" xmlns="http://www.w3.org/2000/svg">
<rect width="64" height="64" rx="6" fill="#2D396B"/>
<path d="M26.3513 26.6079L27.045 12.0433C28.06 12.0433 33.0153 12.0198 44.716 11.9258C58.7541 16.8042 51.6292 27.7599 51.6292 28.0303C57.1433 30.1933 59.7652 34.7425 59.7652 39.9735C59.182 49.1237 51.8957 51.999 48.3255 52.2929H26.3513V26.6079Z" fill="white"/>
<path d="M32.7367 26.7124L40.5447 11.946C38.581 11.946 32.3252 11.9106 21.3658 12.0047C10.4064 12.0987 4.22113 24.6079 4.22113 31.9089C4.66327 47.8323 17.6774 52.0875 24.1291 52.2246V37.2465C22.5299 37.3405 19.1198 35.9767 19.0963 31.9089C19.0775 28.6546 21.9576 27.0886 23.4001 26.7124H32.7367Z" fill="#A469FF"/>
</svg>
